<mxfile host="app.diagrams.net" agent="Mozilla/5.0 (Windows NT 10.0; Win64; x64; rv:133.0) Gecko/20100101 Firefox/133.0" version="25.0.3">
  <diagram id="C5RBs43oDa-KdzZeNtuy" name="Page-1">
    <mxGraphModel dx="2000" dy="1240" grid="0" gridSize="10" guides="1" tooltips="1" connect="1" arrows="1" fold="1" page="0" pageScale="1" pageWidth="827" pageHeight="1169" math="0" shadow="0">
      <root>
        <mxCell id="WIyWlLk6GJQsqaUBKTNV-0" />
        <mxCell id="WIyWlLk6GJQsqaUBKTNV-1" parent="WIyWlLk6GJQsqaUBKTNV-0" />
        <mxCell id="97HXurxGlPe4AN7HEFEC-1" value="addmissions" style="swimlane;fontStyle=0;childLayout=stackLayout;horizontal=1;startSize=30;horizontalStack=0;resizeParent=1;resizeParentMax=0;resizeLast=0;collapsible=1;marginBottom=0;whiteSpace=wrap;html=1;fillColor=#dae8fc;strokeColor=#6c8ebf;" vertex="1" parent="WIyWlLk6GJQsqaUBKTNV-1">
          <mxGeometry x="-95" y="90" width="197" height="180" as="geometry" />
        </mxCell>
        <mxCell id="97HXurxGlPe4AN7HEFEC-2" value="í ½í´‘ addmission_id&amp;nbsp;&amp;nbsp;&amp;nbsp;&amp;nbsp;&amp;nbsp; &lt;b&gt;int&lt;/b&gt;" style="text;strokeColor=none;fillColor=none;align=left;verticalAlign=middle;spacingLeft=4;spacingRight=4;overflow=hidden;points=[[0,0.5],[1,0.5]];portConstraint=eastwest;rotatable=0;whiteSpace=wrap;html=1;" vertex="1" parent="97HXurxGlPe4AN7HEFEC-1">
          <mxGeometry y="30" width="197" height="30" as="geometry" />
        </mxCell>
        <mxCell id="97HXurxGlPe4AN7HEFEC-3" value="&lt;b&gt;&lt;font color=&quot;#0000ff&quot;&gt;# &lt;/font&gt;&lt;/b&gt;patient_id&amp;nbsp;&amp;nbsp;&amp;nbsp;&amp;nbsp;&amp;nbsp;&amp;nbsp;&amp;nbsp;&amp;nbsp; &lt;b&gt;int&lt;/b&gt;" style="text;strokeColor=none;fillColor=none;align=left;verticalAlign=middle;spacingLeft=4;spacingRight=4;overflow=hidden;points=[[0,0.5],[1,0.5]];portConstraint=eastwest;rotatable=0;whiteSpace=wrap;html=1;" vertex="1" parent="97HXurxGlPe4AN7HEFEC-1">
          <mxGeometry y="60" width="197" height="30" as="geometry" />
        </mxCell>
        <mxCell id="97HXurxGlPe4AN7HEFEC-4" value="&lt;b&gt;&lt;font color=&quot;#0000ff&quot;&gt;# &lt;/font&gt;&lt;/b&gt;room_id&amp;nbsp;&amp;nbsp;&amp;nbsp;&amp;nbsp;&amp;nbsp;&amp;nbsp;&amp;nbsp; &lt;b&gt;int&lt;/b&gt;" style="text;strokeColor=none;fillColor=none;align=left;verticalAlign=middle;spacingLeft=4;spacingRight=4;overflow=hidden;points=[[0,0.5],[1,0.5]];portConstraint=eastwest;rotatable=0;whiteSpace=wrap;html=1;" vertex="1" parent="97HXurxGlPe4AN7HEFEC-1">
          <mxGeometry y="90" width="197" height="30" as="geometry" />
        </mxCell>
        <mxCell id="97HXurxGlPe4AN7HEFEC-55" value="addmission_date&amp;nbsp;&amp;nbsp;&amp;nbsp; &lt;b&gt;date&lt;/b&gt;" style="text;strokeColor=none;fillColor=none;align=left;verticalAlign=middle;spacingLeft=4;spacingRight=4;overflow=hidden;points=[[0,0.5],[1,0.5]];portConstraint=eastwest;rotatable=0;whiteSpace=wrap;html=1;" vertex="1" parent="97HXurxGlPe4AN7HEFEC-1">
          <mxGeometry y="120" width="197" height="30" as="geometry" />
        </mxCell>
        <mxCell id="97HXurxGlPe4AN7HEFEC-56" value="discharge_date&amp;nbsp; &lt;b&gt;date&lt;/b&gt;" style="text;strokeColor=none;fillColor=none;align=left;verticalAlign=middle;spacingLeft=4;spacingRight=4;overflow=hidden;points=[[0,0.5],[1,0.5]];portConstraint=eastwest;rotatable=0;whiteSpace=wrap;html=1;" vertex="1" parent="97HXurxGlPe4AN7HEFEC-1">
          <mxGeometry y="150" width="197" height="30" as="geometry" />
        </mxCell>
        <mxCell id="97HXurxGlPe4AN7HEFEC-5" value="patients" style="swimlane;fontStyle=0;childLayout=stackLayout;horizontal=1;startSize=30;horizontalStack=0;resizeParent=1;resizeParentMax=0;resizeLast=0;collapsible=1;marginBottom=0;whiteSpace=wrap;html=1;fillColor=#dae8fc;strokeColor=#6c8ebf;" vertex="1" parent="WIyWlLk6GJQsqaUBKTNV-1">
          <mxGeometry x="224" y="5" width="228" height="270" as="geometry" />
        </mxCell>
        <mxCell id="97HXurxGlPe4AN7HEFEC-6" value="í ½í´‘ patient_id&amp;nbsp; &lt;b&gt;int(11)&lt;/b&gt;" style="text;strokeColor=none;fillColor=none;align=left;verticalAlign=middle;spacingLeft=4;spacingRight=4;overflow=hidden;points=[[0,0.5],[1,0.5]];portConstraint=eastwest;rotatable=0;whiteSpace=wrap;html=1;" vertex="1" parent="97HXurxGlPe4AN7HEFEC-5">
          <mxGeometry y="30" width="228" height="30" as="geometry" />
        </mxCell>
        <mxCell id="97HXurxGlPe4AN7HEFEC-7" value="first_name &lt;b&gt;varchar(50)&lt;/b&gt;" style="text;strokeColor=none;fillColor=none;align=left;verticalAlign=middle;spacingLeft=4;spacingRight=4;overflow=hidden;points=[[0,0.5],[1,0.5]];portConstraint=eastwest;rotatable=0;whiteSpace=wrap;html=1;" vertex="1" parent="97HXurxGlPe4AN7HEFEC-5">
          <mxGeometry y="60" width="228" height="30" as="geometry" />
        </mxCell>
        <mxCell id="97HXurxGlPe4AN7HEFEC-8" value="last_name &lt;b&gt;varchar(50)&lt;/b&gt;" style="text;strokeColor=none;fillColor=none;align=left;verticalAlign=middle;spacingLeft=4;spacingRight=4;overflow=hidden;points=[[0,0.5],[1,0.5]];portConstraint=eastwest;rotatable=0;whiteSpace=wrap;html=1;" vertex="1" parent="97HXurxGlPe4AN7HEFEC-5">
          <mxGeometry y="90" width="228" height="30" as="geometry" />
        </mxCell>
        <mxCell id="97HXurxGlPe4AN7HEFEC-50" value="gender&amp;nbsp; &lt;b&gt;enum(&#39;Male&#39;, &#39;Female&#39;, &#39;Other&#39;)&lt;/b&gt;" style="text;strokeColor=none;fillColor=none;align=left;verticalAlign=middle;spacingLeft=4;spacingRight=4;overflow=hidden;points=[[0,0.5],[1,0.5]];portConstraint=eastwest;rotatable=0;whiteSpace=wrap;html=1;" vertex="1" parent="97HXurxGlPe4AN7HEFEC-5">
          <mxGeometry y="120" width="228" height="30" as="geometry" />
        </mxCell>
        <mxCell id="97HXurxGlPe4AN7HEFEC-51" value="date_of_birth&amp;nbsp;&amp;nbsp; &lt;b&gt;date&lt;/b&gt;" style="text;strokeColor=none;fillColor=none;align=left;verticalAlign=middle;spacingLeft=4;spacingRight=4;overflow=hidden;points=[[0,0.5],[1,0.5]];portConstraint=eastwest;rotatable=0;whiteSpace=wrap;html=1;" vertex="1" parent="97HXurxGlPe4AN7HEFEC-5">
          <mxGeometry y="150" width="228" height="30" as="geometry" />
        </mxCell>
        <mxCell id="97HXurxGlPe4AN7HEFEC-52" value="phone_number&amp;nbsp; &lt;b&gt;varchar(15)&lt;/b&gt;" style="text;strokeColor=none;fillColor=none;align=left;verticalAlign=middle;spacingLeft=4;spacingRight=4;overflow=hidden;points=[[0,0.5],[1,0.5]];portConstraint=eastwest;rotatable=0;whiteSpace=wrap;html=1;" vertex="1" parent="97HXurxGlPe4AN7HEFEC-5">
          <mxGeometry y="180" width="228" height="30" as="geometry" />
        </mxCell>
        <mxCell id="97HXurxGlPe4AN7HEFEC-53" value="email&amp;nbsp; &lt;b&gt;varchar(100)&lt;/b&gt;" style="text;strokeColor=none;fillColor=none;align=left;verticalAlign=middle;spacingLeft=4;spacingRight=4;overflow=hidden;points=[[0,0.5],[1,0.5]];portConstraint=eastwest;rotatable=0;whiteSpace=wrap;html=1;" vertex="1" parent="97HXurxGlPe4AN7HEFEC-5">
          <mxGeometry y="210" width="228" height="30" as="geometry" />
        </mxCell>
        <mxCell id="97HXurxGlPe4AN7HEFEC-54" value="address&amp;nbsp; &lt;b&gt;varchar(255)&lt;/b&gt;" style="text;strokeColor=none;fillColor=none;align=left;verticalAlign=middle;spacingLeft=4;spacingRight=4;overflow=hidden;points=[[0,0.5],[1,0.5]];portConstraint=eastwest;rotatable=0;whiteSpace=wrap;html=1;" vertex="1" parent="97HXurxGlPe4AN7HEFEC-5">
          <mxGeometry y="240" width="228" height="30" as="geometry" />
        </mxCell>
        <mxCell id="97HXurxGlPe4AN7HEFEC-9" value="medications" style="swimlane;fontStyle=0;childLayout=stackLayout;horizontal=1;startSize=30;horizontalStack=0;resizeParent=1;resizeParentMax=0;resizeLast=0;collapsible=1;marginBottom=0;whiteSpace=wrap;html=1;fillColor=#dae8fc;strokeColor=#6c8ebf;" vertex="1" parent="WIyWlLk6GJQsqaUBKTNV-1">
          <mxGeometry x="590" y="-74" width="201" height="120" as="geometry" />
        </mxCell>
        <mxCell id="97HXurxGlPe4AN7HEFEC-10" value="í ½í´‘ medication_id&amp;nbsp; &lt;b&gt;int(11)&lt;/b&gt;" style="text;strokeColor=none;fillColor=none;align=left;verticalAlign=middle;spacingLeft=4;spacingRight=4;overflow=hidden;points=[[0,0.5],[1,0.5]];portConstraint=eastwest;rotatable=0;whiteSpace=wrap;html=1;" vertex="1" parent="97HXurxGlPe4AN7HEFEC-9">
          <mxGeometry y="30" width="201" height="30" as="geometry" />
        </mxCell>
        <mxCell id="97HXurxGlPe4AN7HEFEC-11" value="medication_name&amp;nbsp;&amp;nbsp; &lt;b&gt;varchar(100)&lt;/b&gt;" style="text;strokeColor=none;fillColor=none;align=left;verticalAlign=middle;spacingLeft=4;spacingRight=4;overflow=hidden;points=[[0,0.5],[1,0.5]];portConstraint=eastwest;rotatable=0;whiteSpace=wrap;html=1;" vertex="1" parent="97HXurxGlPe4AN7HEFEC-9">
          <mxGeometry y="60" width="201" height="30" as="geometry" />
        </mxCell>
        <mxCell id="97HXurxGlPe4AN7HEFEC-12" value="dosage&amp;nbsp;&amp;nbsp; &lt;b&gt;varchar(50)&lt;/b&gt;" style="text;strokeColor=none;fillColor=none;align=left;verticalAlign=middle;spacingLeft=4;spacingRight=4;overflow=hidden;points=[[0,0.5],[1,0.5]];portConstraint=eastwest;rotatable=0;whiteSpace=wrap;html=1;" vertex="1" parent="97HXurxGlPe4AN7HEFEC-9">
          <mxGeometry y="90" width="201" height="30" as="geometry" />
        </mxCell>
        <mxCell id="97HXurxGlPe4AN7HEFEC-13" value="prescriptions" style="swimlane;fontStyle=0;childLayout=stackLayout;horizontal=1;startSize=30;horizontalStack=0;resizeParent=1;resizeParentMax=0;resizeLast=0;collapsible=1;marginBottom=0;whiteSpace=wrap;html=1;fillColor=#dae8fc;strokeColor=#6c8ebf;" vertex="1" parent="WIyWlLk6GJQsqaUBKTNV-1">
          <mxGeometry x="590" y="151" width="211" height="210" as="geometry" />
        </mxCell>
        <mxCell id="97HXurxGlPe4AN7HEFEC-14" value="í ½í´‘ prescription_id&amp;nbsp;&amp;nbsp; &lt;b&gt;int(11)&lt;/b&gt;" style="text;strokeColor=none;fillColor=none;align=left;verticalAlign=middle;spacingLeft=4;spacingRight=4;overflow=hidden;points=[[0,0.5],[1,0.5]];portConstraint=eastwest;rotatable=0;whiteSpace=wrap;html=1;" vertex="1" parent="97HXurxGlPe4AN7HEFEC-13">
          <mxGeometry y="30" width="211" height="30" as="geometry" />
        </mxCell>
        <mxCell id="97HXurxGlPe4AN7HEFEC-62" value="&lt;b&gt;&lt;font color=&quot;#0000ff&quot;&gt;# &lt;/font&gt;&lt;/b&gt;patient_id&amp;nbsp;&amp;nbsp; &lt;b&gt;int(11)&lt;/b&gt;" style="text;strokeColor=none;fillColor=none;align=left;verticalAlign=middle;spacingLeft=4;spacingRight=4;overflow=hidden;points=[[0,0.5],[1,0.5]];portConstraint=eastwest;rotatable=0;whiteSpace=wrap;html=1;" vertex="1" parent="97HXurxGlPe4AN7HEFEC-13">
          <mxGeometry y="60" width="211" height="30" as="geometry" />
        </mxCell>
        <mxCell id="97HXurxGlPe4AN7HEFEC-15" value="&lt;b&gt;&lt;font color=&quot;#0000ff&quot;&gt;# &lt;/font&gt;&lt;/b&gt;doctor_id&amp;nbsp; &lt;b&gt;int(11)&lt;/b&gt;" style="text;strokeColor=none;fillColor=none;align=left;verticalAlign=middle;spacingLeft=4;spacingRight=4;overflow=hidden;points=[[0,0.5],[1,0.5]];portConstraint=eastwest;rotatable=0;whiteSpace=wrap;html=1;" vertex="1" parent="97HXurxGlPe4AN7HEFEC-13">
          <mxGeometry y="90" width="211" height="30" as="geometry" />
        </mxCell>
        <mxCell id="97HXurxGlPe4AN7HEFEC-16" value="&lt;b&gt;&lt;font color=&quot;#0000ff&quot;&gt;# &lt;/font&gt;&lt;/b&gt;medication_id&amp;nbsp; &lt;b&gt;int(11)&lt;/b&gt;" style="text;strokeColor=none;fillColor=none;align=left;verticalAlign=middle;spacingLeft=4;spacingRight=4;overflow=hidden;points=[[0,0.5],[1,0.5]];portConstraint=eastwest;rotatable=0;whiteSpace=wrap;html=1;" vertex="1" parent="97HXurxGlPe4AN7HEFEC-13">
          <mxGeometry y="120" width="211" height="30" as="geometry" />
        </mxCell>
        <mxCell id="97HXurxGlPe4AN7HEFEC-60" value="prescription_date&amp;nbsp; &lt;b&gt;date&lt;/b&gt;" style="text;strokeColor=none;fillColor=none;align=left;verticalAlign=middle;spacingLeft=4;spacingRight=4;overflow=hidden;points=[[0,0.5],[1,0.5]];portConstraint=eastwest;rotatable=0;whiteSpace=wrap;html=1;" vertex="1" parent="97HXurxGlPe4AN7HEFEC-13">
          <mxGeometry y="150" width="211" height="30" as="geometry" />
        </mxCell>
        <mxCell id="97HXurxGlPe4AN7HEFEC-61" value="dosage_instructions&amp;nbsp; &lt;b&gt;varchar(255)&lt;/b&gt;" style="text;strokeColor=none;fillColor=none;align=left;verticalAlign=middle;spacingLeft=4;spacingRight=4;overflow=hidden;points=[[0,0.5],[1,0.5]];portConstraint=eastwest;rotatable=0;whiteSpace=wrap;html=1;" vertex="1" parent="97HXurxGlPe4AN7HEFEC-13">
          <mxGeometry y="180" width="211" height="30" as="geometry" />
        </mxCell>
        <mxCell id="97HXurxGlPe4AN7HEFEC-17" value="doctors" style="swimlane;fontStyle=0;childLayout=stackLayout;horizontal=1;startSize=30;horizontalStack=0;resizeParent=1;resizeParentMax=0;resizeLast=0;collapsible=1;marginBottom=0;whiteSpace=wrap;html=1;fillColor=#dae8fc;strokeColor=#6c8ebf;" vertex="1" parent="WIyWlLk6GJQsqaUBKTNV-1">
          <mxGeometry x="590" y="460" width="215" height="240" as="geometry" />
        </mxCell>
        <mxCell id="97HXurxGlPe4AN7HEFEC-18" value="í ½í´‘ doctor_id &lt;b&gt;int(11)&lt;/b&gt;" style="text;strokeColor=none;fillColor=none;align=left;verticalAlign=middle;spacingLeft=4;spacingRight=4;overflow=hidden;points=[[0,0.5],[1,0.5]];portConstraint=eastwest;rotatable=0;whiteSpace=wrap;html=1;" vertex="1" parent="97HXurxGlPe4AN7HEFEC-17">
          <mxGeometry y="30" width="215" height="30" as="geometry" />
        </mxCell>
        <mxCell id="97HXurxGlPe4AN7HEFEC-49" value="&lt;b&gt;&lt;font color=&quot;#0000ff&quot;&gt;# &lt;/font&gt;&lt;/b&gt;departement_id&amp;nbsp; &lt;b&gt;int(11)&lt;/b&gt;" style="text;strokeColor=none;fillColor=none;align=left;verticalAlign=middle;spacingLeft=4;spacingRight=4;overflow=hidden;points=[[0,0.5],[1,0.5]];portConstraint=eastwest;rotatable=0;whiteSpace=wrap;html=1;" vertex="1" parent="97HXurxGlPe4AN7HEFEC-17">
          <mxGeometry y="60" width="215" height="30" as="geometry" />
        </mxCell>
        <mxCell id="97HXurxGlPe4AN7HEFEC-19" value="first_name&amp;nbsp; &lt;b&gt;varchar(50)&lt;/b&gt;" style="text;strokeColor=none;fillColor=none;align=left;verticalAlign=middle;spacingLeft=4;spacingRight=4;overflow=hidden;points=[[0,0.5],[1,0.5]];portConstraint=eastwest;rotatable=0;whiteSpace=wrap;html=1;" vertex="1" parent="97HXurxGlPe4AN7HEFEC-17">
          <mxGeometry y="90" width="215" height="30" as="geometry" />
        </mxCell>
        <mxCell id="97HXurxGlPe4AN7HEFEC-20" value="last_name&amp;nbsp;&amp;nbsp; &lt;b&gt;varchar(50)&lt;/b&gt;" style="text;strokeColor=none;fillColor=none;align=left;verticalAlign=middle;spacingLeft=4;spacingRight=4;overflow=hidden;points=[[0,0.5],[1,0.5]];portConstraint=eastwest;rotatable=0;whiteSpace=wrap;html=1;" vertex="1" parent="97HXurxGlPe4AN7HEFEC-17">
          <mxGeometry y="120" width="215" height="30" as="geometry" />
        </mxCell>
        <mxCell id="97HXurxGlPe4AN7HEFEC-46" value="specialization &lt;b&gt;varchar(50)&lt;/b&gt;" style="text;strokeColor=none;fillColor=none;align=left;verticalAlign=middle;spacingLeft=4;spacingRight=4;overflow=hidden;points=[[0,0.5],[1,0.5]];portConstraint=eastwest;rotatable=0;whiteSpace=wrap;html=1;" vertex="1" parent="97HXurxGlPe4AN7HEFEC-17">
          <mxGeometry y="150" width="215" height="30" as="geometry" />
        </mxCell>
        <mxCell id="97HXurxGlPe4AN7HEFEC-47" value="phone_number&amp;nbsp; &lt;b&gt;varchar(15)&lt;/b&gt;" style="text;strokeColor=none;fillColor=none;align=left;verticalAlign=middle;spacingLeft=4;spacingRight=4;overflow=hidden;points=[[0,0.5],[1,0.5]];portConstraint=eastwest;rotatable=0;whiteSpace=wrap;html=1;" vertex="1" parent="97HXurxGlPe4AN7HEFEC-17">
          <mxGeometry y="180" width="215" height="30" as="geometry" />
        </mxCell>
        <mxCell id="97HXurxGlPe4AN7HEFEC-48" value="email&amp;nbsp; &lt;b&gt;varchar(100)&lt;/b&gt;" style="text;strokeColor=none;fillColor=none;align=left;verticalAlign=middle;spacingLeft=4;spacingRight=4;overflow=hidden;points=[[0,0.5],[1,0.5]];portConstraint=eastwest;rotatable=0;whiteSpace=wrap;html=1;" vertex="1" parent="97HXurxGlPe4AN7HEFEC-17">
          <mxGeometry y="210" width="215" height="30" as="geometry" />
        </mxCell>
        <mxCell id="97HXurxGlPe4AN7HEFEC-21" value="appointements" style="swimlane;fontStyle=0;childLayout=stackLayout;horizontal=1;startSize=30;horizontalStack=0;resizeParent=1;resizeParentMax=0;resizeLast=0;collapsible=1;marginBottom=0;whiteSpace=wrap;html=1;fillColor=#dae8fc;strokeColor=#6c8ebf;" vertex="1" parent="WIyWlLk6GJQsqaUBKTNV-1">
          <mxGeometry x="227" y="361" width="236" height="210" as="geometry" />
        </mxCell>
        <mxCell id="97HXurxGlPe4AN7HEFEC-22" value="í ½í´‘ appointement_id &lt;b&gt;int(11)&lt;/b&gt;" style="text;strokeColor=none;fillColor=none;align=left;verticalAlign=middle;spacingLeft=4;spacingRight=4;overflow=hidden;points=[[0,0.5],[1,0.5]];portConstraint=eastwest;rotatable=0;whiteSpace=wrap;html=1;" vertex="1" parent="97HXurxGlPe4AN7HEFEC-21">
          <mxGeometry y="30" width="236" height="30" as="geometry" />
        </mxCell>
        <mxCell id="97HXurxGlPe4AN7HEFEC-23" value="appoimntement_date&amp;nbsp; &lt;b&gt;date&lt;/b&gt;" style="text;strokeColor=none;fillColor=none;align=left;verticalAlign=middle;spacingLeft=4;spacingRight=4;overflow=hidden;points=[[0,0.5],[1,0.5]];portConstraint=eastwest;rotatable=0;whiteSpace=wrap;html=1;" vertex="1" parent="97HXurxGlPe4AN7HEFEC-21">
          <mxGeometry y="60" width="236" height="30" as="geometry" />
        </mxCell>
        <mxCell id="97HXurxGlPe4AN7HEFEC-57" value="&lt;b&gt;&lt;font color=&quot;#0000ff&quot;&gt;# &lt;/font&gt;&lt;/b&gt;doctor_id&amp;nbsp;&amp;nbsp; &lt;b&gt;int(11)&lt;/b&gt;" style="text;strokeColor=none;fillColor=none;align=left;verticalAlign=middle;spacingLeft=4;spacingRight=4;overflow=hidden;points=[[0,0.5],[1,0.5]];portConstraint=eastwest;rotatable=0;whiteSpace=wrap;html=1;" vertex="1" parent="97HXurxGlPe4AN7HEFEC-21">
          <mxGeometry y="90" width="236" height="30" as="geometry" />
        </mxCell>
        <mxCell id="97HXurxGlPe4AN7HEFEC-58" value="&lt;b&gt;&lt;font color=&quot;#0000ff&quot;&gt;# &lt;/font&gt;&lt;/b&gt;patient_id&amp;nbsp;&amp;nbsp; &lt;b&gt;int(11)&lt;/b&gt;" style="text;strokeColor=none;fillColor=none;align=left;verticalAlign=middle;spacingLeft=4;spacingRight=4;overflow=hidden;points=[[0,0.5],[1,0.5]];portConstraint=eastwest;rotatable=0;whiteSpace=wrap;html=1;" vertex="1" parent="97HXurxGlPe4AN7HEFEC-21">
          <mxGeometry y="120" width="236" height="30" as="geometry" />
        </mxCell>
        <mxCell id="97HXurxGlPe4AN7HEFEC-24" value="apointement_time&amp;nbsp; &lt;b&gt;time&lt;/b&gt;" style="text;strokeColor=none;fillColor=none;align=left;verticalAlign=middle;spacingLeft=4;spacingRight=4;overflow=hidden;points=[[0,0.5],[1,0.5]];portConstraint=eastwest;rotatable=0;whiteSpace=wrap;html=1;" vertex="1" parent="97HXurxGlPe4AN7HEFEC-21">
          <mxGeometry y="150" width="236" height="30" as="geometry" />
        </mxCell>
        <mxCell id="97HXurxGlPe4AN7HEFEC-59" value="reason &lt;b&gt;varchar (255)&lt;/b&gt;" style="text;strokeColor=none;fillColor=none;align=left;verticalAlign=middle;spacingLeft=4;spacingRight=4;overflow=hidden;points=[[0,0.5],[1,0.5]];portConstraint=eastwest;rotatable=0;whiteSpace=wrap;html=1;" vertex="1" parent="97HXurxGlPe4AN7HEFEC-21">
          <mxGeometry y="180" width="236" height="30" as="geometry" />
        </mxCell>
        <mxCell id="97HXurxGlPe4AN7HEFEC-25" value="departements" style="swimlane;fontStyle=0;childLayout=stackLayout;horizontal=1;startSize=30;horizontalStack=0;resizeParent=1;resizeParentMax=0;resizeLast=0;collapsible=1;marginBottom=0;whiteSpace=wrap;html=1;fillColor=#dae8fc;strokeColor=#6c8ebf;" vertex="1" parent="WIyWlLk6GJQsqaUBKTNV-1">
          <mxGeometry x="224" y="703" width="206" height="120" as="geometry" />
        </mxCell>
        <mxCell id="97HXurxGlPe4AN7HEFEC-26" value="í ½í´‘ departement_id&amp;nbsp; &lt;b&gt;int &lt;/b&gt;" style="text;strokeColor=none;fillColor=none;align=left;verticalAlign=middle;spacingLeft=4;spacingRight=4;overflow=hidden;points=[[0,0.5],[1,0.5]];portConstraint=eastwest;rotatable=0;whiteSpace=wrap;html=1;" vertex="1" parent="97HXurxGlPe4AN7HEFEC-25">
          <mxGeometry y="30" width="206" height="30" as="geometry" />
        </mxCell>
        <mxCell id="97HXurxGlPe4AN7HEFEC-27" value="departement_name&amp;nbsp; &lt;b&gt;varchar(50)&lt;/b&gt; " style="text;strokeColor=none;fillColor=none;align=left;verticalAlign=middle;spacingLeft=4;spacingRight=4;overflow=hidden;points=[[0,0.5],[1,0.5]];portConstraint=eastwest;rotatable=0;whiteSpace=wrap;html=1;" vertex="1" parent="97HXurxGlPe4AN7HEFEC-25">
          <mxGeometry y="60" width="206" height="30" as="geometry" />
        </mxCell>
        <mxCell id="97HXurxGlPe4AN7HEFEC-28" value="location&amp;nbsp;&amp;nbsp; &lt;b&gt;varchar(100)&lt;/b&gt;" style="text;strokeColor=none;fillColor=none;align=left;verticalAlign=middle;spacingLeft=4;spacingRight=4;overflow=hidden;points=[[0,0.5],[1,0.5]];portConstraint=eastwest;rotatable=0;whiteSpace=wrap;html=1;" vertex="1" parent="97HXurxGlPe4AN7HEFEC-25">
          <mxGeometry y="90" width="206" height="30" as="geometry" />
        </mxCell>
        <mxCell id="97HXurxGlPe4AN7HEFEC-29" value="rooms" style="swimlane;fontStyle=0;childLayout=stackLayout;horizontal=1;startSize=30;horizontalStack=0;resizeParent=1;resizeParentMax=0;resizeLast=0;collapsible=1;marginBottom=0;whiteSpace=wrap;html=1;fillColor=#dae8fc;strokeColor=#6c8ebf;" vertex="1" parent="WIyWlLk6GJQsqaUBKTNV-1">
          <mxGeometry x="-122.5" y="376" width="252" height="150" as="geometry" />
        </mxCell>
        <mxCell id="97HXurxGlPe4AN7HEFEC-30" value="í ½í´‘ room_id&amp;nbsp;&amp;nbsp; &lt;b&gt;int&lt;/b&gt;" style="text;strokeColor=none;fillColor=none;align=left;verticalAlign=middle;spacingLeft=4;spacingRight=4;overflow=hidden;points=[[0,0.5],[1,0.5]];portConstraint=eastwest;rotatable=0;whiteSpace=wrap;html=1;" vertex="1" parent="97HXurxGlPe4AN7HEFEC-29">
          <mxGeometry y="30" width="252" height="30" as="geometry" />
        </mxCell>
        <mxCell id="97HXurxGlPe4AN7HEFEC-31" value="room_number&amp;nbsp;&amp;nbsp; &lt;b&gt;varchar(10)&lt;/b&gt;" style="text;strokeColor=none;fillColor=none;align=left;verticalAlign=middle;spacingLeft=4;spacingRight=4;overflow=hidden;points=[[0,0.5],[1,0.5]];portConstraint=eastwest;rotatable=0;whiteSpace=wrap;html=1;" vertex="1" parent="97HXurxGlPe4AN7HEFEC-29">
          <mxGeometry y="60" width="252" height="30" as="geometry" />
        </mxCell>
        <mxCell id="97HXurxGlPe4AN7HEFEC-32" value="room_type &lt;b&gt;enum(&#39;General&#39;, &#39;Private&#39;, &#39;ICU&#39;)&lt;/b&gt;" style="text;strokeColor=none;fillColor=none;align=left;verticalAlign=middle;spacingLeft=4;spacingRight=4;overflow=hidden;points=[[0,0.5],[1,0.5]];portConstraint=eastwest;rotatable=0;whiteSpace=wrap;html=1;" vertex="1" parent="97HXurxGlPe4AN7HEFEC-29">
          <mxGeometry y="90" width="252" height="30" as="geometry" />
        </mxCell>
        <mxCell id="97HXurxGlPe4AN7HEFEC-37" value="availability&amp;nbsp;&amp;nbsp; &lt;b&gt;tinyint(1)&lt;/b&gt;" style="text;strokeColor=none;fillColor=none;align=left;verticalAlign=middle;spacingLeft=4;spacingRight=4;overflow=hidden;points=[[0,0.5],[1,0.5]];portConstraint=eastwest;rotatable=0;whiteSpace=wrap;html=1;" vertex="1" parent="97HXurxGlPe4AN7HEFEC-29">
          <mxGeometry y="120" width="252" height="30" as="geometry" />
        </mxCell>
        <mxCell id="97HXurxGlPe4AN7HEFEC-33" value="staff" style="swimlane;fontStyle=0;childLayout=stackLayout;horizontal=1;startSize=30;horizontalStack=0;resizeParent=1;resizeParentMax=0;resizeLast=0;collapsible=1;marginBottom=0;whiteSpace=wrap;html=1;fillColor=#dae8fc;strokeColor=#6c8ebf;" vertex="1" parent="WIyWlLk6GJQsqaUBKTNV-1">
          <mxGeometry x="-87" y="640" width="205" height="240" as="geometry" />
        </mxCell>
        <mxCell id="97HXurxGlPe4AN7HEFEC-34" value="í ½í´‘ staff_id&amp;nbsp; &lt;b&gt;int(11)&lt;/b&gt;" style="text;strokeColor=none;fillColor=none;align=left;verticalAlign=middle;spacingLeft=4;spacingRight=4;overflow=hidden;points=[[0,0.5],[1,0.5]];portConstraint=eastwest;rotatable=0;whiteSpace=wrap;html=1;" vertex="1" parent="97HXurxGlPe4AN7HEFEC-33">
          <mxGeometry y="30" width="205" height="30" as="geometry" />
        </mxCell>
        <mxCell id="97HXurxGlPe4AN7HEFEC-41" value="&lt;b&gt;&lt;font color=&quot;#0000ff&quot;&gt;# &lt;/font&gt;&lt;/b&gt;departement_id&amp;nbsp; &lt;b&gt;int(11)&lt;/b&gt;" style="text;strokeColor=none;fillColor=none;align=left;verticalAlign=middle;spacingLeft=4;spacingRight=4;overflow=hidden;points=[[0,0.5],[1,0.5]];portConstraint=eastwest;rotatable=0;whiteSpace=wrap;html=1;" vertex="1" parent="97HXurxGlPe4AN7HEFEC-33">
          <mxGeometry y="60" width="205" height="30" as="geometry" />
        </mxCell>
        <mxCell id="97HXurxGlPe4AN7HEFEC-35" value="first_name&amp;nbsp; &lt;b&gt;varchar(50)&lt;/b&gt;" style="text;strokeColor=none;fillColor=none;align=left;verticalAlign=middle;spacingLeft=4;spacingRight=4;overflow=hidden;points=[[0,0.5],[1,0.5]];portConstraint=eastwest;rotatable=0;whiteSpace=wrap;html=1;" vertex="1" parent="97HXurxGlPe4AN7HEFEC-33">
          <mxGeometry y="90" width="205" height="30" as="geometry" />
        </mxCell>
        <mxCell id="97HXurxGlPe4AN7HEFEC-36" value="last_name&amp;nbsp;&amp;nbsp; &lt;b&gt;varchar(50)&lt;/b&gt;" style="text;strokeColor=none;fillColor=none;align=left;verticalAlign=middle;spacingLeft=4;spacingRight=4;overflow=hidden;points=[[0,0.5],[1,0.5]];portConstraint=eastwest;rotatable=0;whiteSpace=wrap;html=1;" vertex="1" parent="97HXurxGlPe4AN7HEFEC-33">
          <mxGeometry y="120" width="205" height="30" as="geometry" />
        </mxCell>
        <mxCell id="97HXurxGlPe4AN7HEFEC-38" value="job_title&amp;nbsp;&amp;nbsp;&amp;nbsp; &lt;b&gt;varchar(50)&lt;/b&gt;" style="text;strokeColor=none;fillColor=none;align=left;verticalAlign=middle;spacingLeft=4;spacingRight=4;overflow=hidden;points=[[0,0.5],[1,0.5]];portConstraint=eastwest;rotatable=0;whiteSpace=wrap;html=1;" vertex="1" parent="97HXurxGlPe4AN7HEFEC-33">
          <mxGeometry y="150" width="205" height="30" as="geometry" />
        </mxCell>
        <mxCell id="97HXurxGlPe4AN7HEFEC-39" value="phone_number&amp;nbsp; &lt;b&gt;varchar(15)&lt;/b&gt;" style="text;strokeColor=none;fillColor=none;align=left;verticalAlign=middle;spacingLeft=4;spacingRight=4;overflow=hidden;points=[[0,0.5],[1,0.5]];portConstraint=eastwest;rotatable=0;whiteSpace=wrap;html=1;" vertex="1" parent="97HXurxGlPe4AN7HEFEC-33">
          <mxGeometry y="180" width="205" height="30" as="geometry" />
        </mxCell>
        <mxCell id="97HXurxGlPe4AN7HEFEC-40" value="email&amp;nbsp;&amp;nbsp; &lt;b&gt;varchar(100)&lt;/b&gt;" style="text;strokeColor=none;fillColor=none;align=left;verticalAlign=middle;spacingLeft=4;spacingRight=4;overflow=hidden;points=[[0,0.5],[1,0.5]];portConstraint=eastwest;rotatable=0;whiteSpace=wrap;html=1;" vertex="1" parent="97HXurxGlPe4AN7HEFEC-33">
          <mxGeometry y="210" width="205" height="30" as="geometry" />
        </mxCell>
        <mxCell id="97HXurxGlPe4AN7HEFEC-64" value="" style="endArrow=classic;html=1;rounded=0;exitX=-0.005;exitY=0.256;exitDx=0;exitDy=0;exitPerimeter=0;" edge="1" parent="WIyWlLk6GJQsqaUBKTNV-1" source="97HXurxGlPe4AN7HEFEC-27">
          <mxGeometry relative="1" as="geometry">
            <mxPoint x="251" y="631" as="sourcePoint" />
            <mxPoint x="111" y="771" as="targetPoint" />
          </mxGeometry>
        </mxCell>
        <mxCell id="97HXurxGlPe4AN7HEFEC-65" value="1 N" style="edgeLabel;resizable=0;html=1;;align=center;verticalAlign=middle;" connectable="0" vertex="1" parent="97HXurxGlPe4AN7HEFEC-64">
          <mxGeometry relative="1" as="geometry" />
        </mxCell>
        <mxCell id="97HXurxGlPe4AN7HEFEC-67" value="" style="endArrow=classic;html=1;rounded=0;exitX=1;exitY=0.5;exitDx=0;exitDy=0;entryX=-0.014;entryY=0.033;entryDx=0;entryDy=0;entryPerimeter=0;" edge="1" parent="WIyWlLk6GJQsqaUBKTNV-1" source="97HXurxGlPe4AN7HEFEC-27" target="97HXurxGlPe4AN7HEFEC-47">
          <mxGeometry relative="1" as="geometry">
            <mxPoint x="487" y="738" as="sourcePoint" />
            <mxPoint x="587" y="738" as="targetPoint" />
          </mxGeometry>
        </mxCell>
        <mxCell id="97HXurxGlPe4AN7HEFEC-68" value="1 N" style="edgeLabel;resizable=0;html=1;;align=center;verticalAlign=middle;" connectable="0" vertex="1" parent="97HXurxGlPe4AN7HEFEC-67">
          <mxGeometry relative="1" as="geometry" />
        </mxCell>
        <mxCell id="97HXurxGlPe4AN7HEFEC-70" value="" style="endArrow=classic;html=1;rounded=0;exitX=-0.001;exitY=0.631;exitDx=0;exitDy=0;entryX=1;entryY=0.5;entryDx=0;entryDy=0;exitPerimeter=0;" edge="1" parent="WIyWlLk6GJQsqaUBKTNV-1" source="97HXurxGlPe4AN7HEFEC-51">
          <mxGeometry relative="1" as="geometry">
            <mxPoint x="224" y="179" as="sourcePoint" />
            <mxPoint x="101.99999999999955" y="174" as="targetPoint" />
          </mxGeometry>
        </mxCell>
        <mxCell id="97HXurxGlPe4AN7HEFEC-71" value="1N" style="edgeLabel;resizable=0;html=1;;align=center;verticalAlign=middle;" connectable="0" vertex="1" parent="97HXurxGlPe4AN7HEFEC-70">
          <mxGeometry relative="1" as="geometry" />
        </mxCell>
        <mxCell id="97HXurxGlPe4AN7HEFEC-72" value="" style="endArrow=classic;html=1;rounded=0;exitX=0.447;exitY=1.071;exitDx=0;exitDy=0;exitPerimeter=0;" edge="1" parent="WIyWlLk6GJQsqaUBKTNV-1" source="97HXurxGlPe4AN7HEFEC-54">
          <mxGeometry relative="1" as="geometry">
            <mxPoint x="277" y="309" as="sourcePoint" />
            <mxPoint x="326" y="357" as="targetPoint" />
          </mxGeometry>
        </mxCell>
        <mxCell id="97HXurxGlPe4AN7HEFEC-73" value="1N" style="edgeLabel;resizable=0;html=1;;align=center;verticalAlign=middle;" connectable="0" vertex="1" parent="97HXurxGlPe4AN7HEFEC-72">
          <mxGeometry relative="1" as="geometry" />
        </mxCell>
        <mxCell id="97HXurxGlPe4AN7HEFEC-76" value="" style="endArrow=classic;html=1;rounded=0;entryX=-0.019;entryY=-0.041;entryDx=0;entryDy=0;entryPerimeter=0;exitX=1.007;exitY=1.185;exitDx=0;exitDy=0;exitPerimeter=0;" edge="1" parent="WIyWlLk6GJQsqaUBKTNV-1" source="97HXurxGlPe4AN7HEFEC-8" target="97HXurxGlPe4AN7HEFEC-15">
          <mxGeometry relative="1" as="geometry">
            <mxPoint x="338" y="223" as="sourcePoint" />
            <mxPoint x="438" y="223" as="targetPoint" />
          </mxGeometry>
        </mxCell>
        <mxCell id="97HXurxGlPe4AN7HEFEC-77" value="1N" style="edgeLabel;resizable=0;html=1;;align=center;verticalAlign=middle;" connectable="0" vertex="1" parent="97HXurxGlPe4AN7HEFEC-76">
          <mxGeometry relative="1" as="geometry" />
        </mxCell>
        <mxCell id="97HXurxGlPe4AN7HEFEC-80" value="" style="endArrow=classic;html=1;rounded=0;exitX=0;exitY=0.5;exitDx=0;exitDy=0;entryX=0.986;entryY=0.133;entryDx=0;entryDy=0;entryPerimeter=0;" edge="1" parent="WIyWlLk6GJQsqaUBKTNV-1" source="97HXurxGlPe4AN7HEFEC-19" target="97HXurxGlPe4AN7HEFEC-57">
          <mxGeometry relative="1" as="geometry">
            <mxPoint x="513" y="640" as="sourcePoint" />
            <mxPoint x="613" y="640" as="targetPoint" />
          </mxGeometry>
        </mxCell>
        <mxCell id="97HXurxGlPe4AN7HEFEC-81" value="1N" style="edgeLabel;resizable=0;html=1;;align=center;verticalAlign=middle;" connectable="0" vertex="1" parent="97HXurxGlPe4AN7HEFEC-80">
          <mxGeometry relative="1" as="geometry" />
        </mxCell>
        <mxCell id="97HXurxGlPe4AN7HEFEC-83" value="" style="endArrow=classic;html=1;rounded=0;exitX=0.5;exitY=0;exitDx=0;exitDy=0;entryX=0.504;entryY=0.989;entryDx=0;entryDy=0;entryPerimeter=0;" edge="1" parent="WIyWlLk6GJQsqaUBKTNV-1" source="97HXurxGlPe4AN7HEFEC-17" target="97HXurxGlPe4AN7HEFEC-61">
          <mxGeometry relative="1" as="geometry">
            <mxPoint x="260" y="292" as="sourcePoint" />
            <mxPoint x="360" y="292" as="targetPoint" />
            <Array as="points" />
          </mxGeometry>
        </mxCell>
        <mxCell id="97HXurxGlPe4AN7HEFEC-84" value="1N" style="edgeLabel;resizable=0;html=1;;align=center;verticalAlign=middle;" connectable="0" vertex="1" parent="97HXurxGlPe4AN7HEFEC-83">
          <mxGeometry relative="1" as="geometry" />
        </mxCell>
        <mxCell id="97HXurxGlPe4AN7HEFEC-85" value="" style="endArrow=classic;html=1;rounded=0;entryX=0.47;entryY=0.983;entryDx=0;entryDy=0;entryPerimeter=0;" edge="1" parent="WIyWlLk6GJQsqaUBKTNV-1" target="97HXurxGlPe4AN7HEFEC-56">
          <mxGeometry relative="1" as="geometry">
            <mxPoint x="-1" y="376" as="sourcePoint" />
            <mxPoint x="-1.2280000000002929" y="278.24" as="targetPoint" />
          </mxGeometry>
        </mxCell>
        <mxCell id="97HXurxGlPe4AN7HEFEC-86" value="1N" style="edgeLabel;resizable=0;html=1;;align=center;verticalAlign=middle;" connectable="0" vertex="1" parent="97HXurxGlPe4AN7HEFEC-85">
          <mxGeometry relative="1" as="geometry" />
        </mxCell>
        <mxCell id="97HXurxGlPe4AN7HEFEC-88" value="" style="endArrow=classic;html=1;rounded=0;exitX=0.425;exitY=1.054;exitDx=0;exitDy=0;exitPerimeter=0;" edge="1" parent="WIyWlLk6GJQsqaUBKTNV-1">
          <mxGeometry relative="1" as="geometry">
            <mxPoint x="675.425" y="47.620000000000005" as="sourcePoint" />
            <mxPoint x="672" y="149" as="targetPoint" />
          </mxGeometry>
        </mxCell>
        <mxCell id="97HXurxGlPe4AN7HEFEC-89" value="1N" style="edgeLabel;resizable=0;html=1;;align=center;verticalAlign=middle;" connectable="0" vertex="1" parent="97HXurxGlPe4AN7HEFEC-88">
          <mxGeometry relative="1" as="geometry" />
        </mxCell>
        <mxCell id="97HXurxGlPe4AN7HEFEC-90" value="&lt;div&gt;&lt;b&gt;&lt;font color=&quot;#0000ff&quot;&gt;# &lt;/font&gt;&lt;/b&gt;Foreign Key&lt;b&gt;&lt;font color=&quot;#0000ff&quot;&gt;&amp;nbsp; &lt;/font&gt;&lt;/b&gt;&lt;/div&gt;&lt;div&gt;&lt;br&gt;&lt;/div&gt;í ½í´‘ Primary Key" style="text;html=1;align=center;verticalAlign=middle;resizable=0;points=[];autosize=1;strokeColor=none;fillColor=none;" vertex="1" parent="WIyWlLk6GJQsqaUBKTNV-1">
          <mxGeometry x="-108" y="-102" width="102" height="55" as="geometry" />
        </mxCell>
      </root>
    </mxGraphModel>
  </diagram>
</mxfile>
